# xmcd
#
# Track frame offsets:
#	150
#	15380
#	36440
#	53702
#	66415
#	77932
#	89460
#	104454
#	119407
#	130412
#	146717
#	157920
#	177157
#	194545
#	206867
#
# Disc length: 3029
#
# Revision: 2
# Processed by: cddbd v1.5.1PL0 Copyright (c) Steve Scherf et al.
# Submitted via: audiograbber 1.82.02
# Normalized: r1:DSETVAR1
#
DISCID=dd0bd30f
DTITLE=Various Artist - MAX (The Greatest No1 Country Rock Album) - Disc 1
DYEAR=1900
DGENRE=Country
TTITLE0=Mary Chapin Carpenter - Passionate Kisses
TTITLE1=Alannah Myles - Black Velvet
TTITLE2=Troy Cassar-Daley Featuring Tommy Emmanuel - Ramblin' Man
TTITLE3=The Bellamy Brothers - Let Your Love Flow
TTITLE4=Ricky Van Shelton - Hole In My Pocket
TTITLE5=Dolly Parton - Baby I'm Burning
TTITLE6=Willie Nelson - Nothing I Can Do About It Now
TTITLE7=Alabama - Love in the First Degree
TTITLE8=Roger Miller - King of the Road
TTITLE9=Charlie Daniels Band - The Devil Went Down to Georgia
TTITLE10=Don Gibson - Sea of Heartbreaks
TTITLE11=Ronnie Milsap - Lost in the Fifties Tonight
TTITLE12=James Taylor and Carly Simon - Mockingbird
TTITLE13=Johnny Paycheck - Take This Job and Shove It
TTITLE14=Goanna - Solid Rock
EXTD=
EXTT0=
EXTT1=
EXTT2=
EXTT3=
EXTT4=
EXTT5=
EXTT6=
EXTT7=
EXTT8=
EXTT9=
EXTT10=
EXTT11=
EXTT12=
EXTT13=
EXTT14=
PLAYORDER=
